<?xml version="1.0" encoding="UTF-8"?>
<svg width="24" height="24" viewBox="0 0 24 24" fill="none" xmlns="http://www.w3.org/2000/svg">
<path opacity="0.4" d="M9.24387 20.9981H7.78749C4.8397 20.9981 3.00098 18.9161 3.00098 15.9781V8.02973C3.00098 5.08194 4.84943 3 7.78749 3H16.2222C19.17 3 20.999 5.08194 20.999 8.02973V15.9781C20.999 18.9161 19.17 20.9981 16.2125 20.9981L14.7561 21" stroke="#000000" stroke-width="1.5" stroke-linecap="round" stroke-linejoin="round"></path>
<path d="M9.24423 20.9976C9.08371 19.3836 9.9982 17.7054 10.4156 17.2754C8.4708 17.0341 6.42583 16.3054 6.42583 12.9481C6.42097 12.0764 6.75466 11.2368 7.35492 10.6054C7.07279 9.8495 7.09322 9.01283 7.41135 8.27053C7.41135 8.27053 8.14197 8.05358 9.83379 9.18698C11.2532 8.80172 12.7504 8.80172 14.1699 9.18698C15.8617 8.05358 16.5923 8.27053 16.5923 8.27053C16.9114 9.01283 16.9309 9.8495 16.6487 10.6054C17.2451 11.2319 17.5778 12.0637 17.5778 12.9296C17.5778 16.3123 15.5328 17.0487 13.5881 17.2657C14.0054 17.6966 14.917 19.3855 14.7565 20.9995" stroke="#000000" stroke-width="1.5" stroke-linecap="round" stroke-linejoin="round"></path>
</svg>